<svg width="200" height="173" viewBox="0 0 200 173" fill="none" xmlns="http://www.w3.org/2000/svg">
<g clip-path="url(#clip0_6_701)">
<path d="M105.794 1.62938C105.336 2.56031 103.598 4.51527 101.996 6.09786C99.4342 8.51828 97.6041 9.58886 88.2246 14.2435C82.2767 17.176 76.1458 20.5273 74.6359 21.6444C70.0148 24.9958 67.1781 29.6505 66.4461 35.1895L66.1258 37.6565L67.4526 37.703C70.7011 37.7961 72.9888 37.5168 81.4989 35.7481C91.0156 33.7931 97.5583 33.3276 100.99 34.3517C101.859 34.6309 102.591 34.8637 102.637 34.8637C102.683 34.8637 102.82 34.3051 102.957 33.5604C103.598 30.4417 108.905 27.0904 115.173 25.8336C121.396 24.5769 129.952 24.5769 136.54 25.8336L138.004 26.1129L137.547 24.3441C136.357 19.8291 132.971 16.1985 127.389 13.4988C112.016 6.09786 109.82 4.748 107.716 1.58283L106.663 0.000247955L105.794 1.62938Z" fill="#FF0000"/>
<path d="M45.3538 9.12317C44.1642 14.6157 42.2426 18.0601 35.6998 26.392C27.9218 36.353 26.1374 40.6352 26.5492 48.5482C26.8237 53.9941 27.7388 57.1128 30.9872 63.9551C33.0919 68.377 37.347 75.5918 37.6672 75.2659C37.713 75.1729 37.2097 73.0783 36.4319 70.5647C32.3598 56.5076 32.9089 49.5257 38.445 44.3124C42.1511 40.8214 48.6938 38.3079 57.2497 37.0512L61.3675 36.446L61.9622 33.7463C63.0146 28.9986 65.531 24.8094 70.1063 20.2013C72.394 17.8739 75.734 15.0811 77.5184 13.9175C79.3485 12.7538 80.8126 11.7298 80.8126 11.5901C80.8584 11.2178 78.3877 10.3334 75.7798 9.77482C74.5902 9.49554 69.1455 9.16972 63.6551 9.03008C58.119 8.84389 52.1253 8.51806 50.2951 8.28533C45.6741 7.72677 45.6741 7.72677 45.3538 9.12317Z" fill="#FF0000"/>
<path d="M139.423 20.9461C139.423 21.7374 139.743 23.0873 140.155 23.9251C140.841 25.3681 141.07 25.5077 148.116 27.4161C152.096 28.5332 155.574 29.5573 155.802 29.6969C156.077 29.8365 158.136 35.4221 160.469 42.0783C162.757 48.7345 164.999 54.5528 165.41 55.0648C165.822 55.5303 166.875 56.2285 167.744 56.6009C169.117 57.206 169.391 57.206 169.986 56.6009C170.581 55.9958 170.26 54.3666 167.561 42.9161C165.868 35.7945 164.267 29.5107 163.992 28.9522C163.718 28.347 163.031 27.5558 162.391 27.1368C161.064 26.2524 141.482 19.5032 140.246 19.5032C139.651 19.5032 139.423 19.8756 139.423 20.9461Z" fill="#FF0000"/>
<path d="M132.102 30.0227C128.854 30.6744 123.317 32.2569 120.115 33.5137L116.454 34.9566L120.526 37.2374C128.808 41.9852 134.39 47.3846 137.775 53.9011C140.383 59.0213 140.978 61.7675 141.024 68.9357V75.266L143.129 75.5453C147.933 76.197 153.469 80.2465 156.214 85.1339L157.541 87.5078L158.959 83.179C160.744 77.8727 160.835 77.4072 161.384 72.0078C162.254 63.4432 160.744 52.9237 156.992 41.4732C153.926 32.0708 153.926 32.0708 150.403 31.0002C148.161 30.3485 145.691 30.0693 140.338 29.9762C136.449 29.8831 132.743 29.9296 132.102 30.0227Z" fill="#FF0000"/>
<path d="M107.99 33.2342C106.617 35.7012 101.31 37.7492 91.1986 39.7507C77.1981 42.4504 70.3351 45.988 65.6683 52.9234C62.4655 57.6246 60.7269 64.9324 60.7269 73.2177L60.7727 77.919L63.7466 74.7072C67.4526 70.7973 69.42 66.7943 71.0214 59.8589C71.662 57.0661 72.577 54.0405 73.0346 53.1096C75.3222 48.5946 79.806 46.4534 90.6953 44.5916C93.7151 44.1261 97.4668 43.4744 99.0682 43.1486C102.545 42.5435 105.931 43.1486 108.448 44.9174C109.363 45.5225 111.193 47.6636 112.474 49.6651C113.801 51.6201 116.637 55.53 118.834 58.3694C124.004 65.0721 125.468 67.3063 127.298 71.3093C129.311 75.8244 130.363 80.991 130.409 86.6697L130.455 91.4175L132.011 86.9955C132.88 84.5751 134.253 80.5721 135.122 78.1517C139.057 66.9805 135.9 58.2763 123.18 45.3363C119.108 41.1937 109.271 32.536 108.585 32.536C108.448 32.536 108.173 32.8618 107.99 33.2342Z" fill="#FF0000"/>
<path d="M52.4913 41.1474C49.1513 41.9852 46.0401 43.3816 42.334 45.709L39.2686 47.6174L40.1836 48.8741C42.334 51.9462 42.8831 55.7165 41.968 61.1624C41.236 65.3051 41.3732 72.3802 42.1968 75.5919C43.8439 82.0619 48.5565 89.9283 55.6025 97.9343C57.8444 100.494 60.3608 103.194 61.1387 103.985L62.557 105.335L61.6877 102.822C61.2302 101.425 59.4915 96.8172 57.8444 92.5814C56.2431 88.3457 54.5502 83.3186 54.0926 81.4102C53.1318 76.9883 53.1318 70.4718 54.0469 66.3757C55.7398 59.0678 60.7269 50.1774 67.2238 42.9627L68.9625 41.0543L66.8578 40.7285C63.3348 40.263 55.1907 40.4957 52.4913 41.1474Z" fill="#FF0000"/>
<path d="M92.9372 47.8964C90.2378 49.2463 86.8063 52.2253 88.8652 51.3874C93.0745 49.7117 97.7413 49.2928 100.944 50.2237C103.094 50.8289 105.931 52.9235 107.167 54.7853C108.356 56.6006 108.905 56.1817 108.905 53.482C108.905 49.479 104.65 46.5 98.8852 46.5C96.1857 46.5 95.1791 46.7327 92.9372 47.8964Z" fill="#FF0000"/>
<path d="M93.2117 53.6684C92.9372 54.5993 91.9764 56.3216 91.1528 57.4387C88.7737 60.5573 88.1789 62.0933 87.9044 65.4912L87.6756 68.6099L89.9633 66.0498C93.7608 61.8141 94.7216 60.2315 94.9504 57.5318C95.0419 56.0423 94.8589 54.5062 94.4471 53.5288L93.8065 51.9462L93.2117 53.6684Z" fill="#FF0000"/>
<path d="M78.7537 53.4821C76.9693 54.4131 76.832 54.5527 76.6033 57.0197C76.3288 59.6263 74.2699 64.3275 68.3219 75.6849C64.6617 82.7134 63.7008 85.8786 63.7008 90.9987C63.7008 95.9792 64.2041 97.0032 69.0997 101.937C78.5249 111.34 90.558 113.434 104.742 108.081C107.67 106.964 107.807 106.825 107.578 105.661C106.343 100.448 103.735 95.8861 95.4994 84.6684C87.6298 73.9161 85.3422 70.2389 83.7866 65.5843C82.5512 62.0467 82.2767 56.9731 83.1003 54.0407C83.512 52.5978 83.512 52.5512 82.0937 52.5512C81.2701 52.5512 79.7603 52.9701 78.7537 53.4821Z" fill="#FF0000"/>
<path d="M101.219 54.5062C100.715 54.7855 99.6172 55.6233 98.7937 56.3681L97.2838 57.6714H98.4734C100.166 57.6714 105.794 54.832 105.245 54.2269C104.787 53.7615 102.225 53.9477 101.219 54.5062Z" fill="#FF0000"/>
<path d="M111.467 59.3003C110.827 59.6261 108.493 60.2778 106.206 60.6967C103.964 61.1156 101.127 62.0466 99.8917 62.6982C97.6498 63.955 89.8717 71.8679 90.1005 72.6592C90.192 72.8919 91.3816 73.5436 92.7999 74.1487C99.1139 76.7553 101.996 80.9445 105.702 93.0466C107.441 98.6322 109.134 102.868 110.278 104.404C110.918 105.288 110.964 105.288 112.245 104.451C114.441 103.008 120.435 96.6773 121.716 94.443C123.592 91.1382 124.461 87.0421 123.912 84.0166C123.272 80.5721 122.54 78.943 119.062 73.0316C115.356 66.7943 113.938 63.6757 113.572 60.7898C113.206 58.3694 113.16 58.3694 111.467 59.3003Z" fill="#FF0000"/>
<path d="M165.822 62.3725C166.783 71.356 165.822 76.7089 161.155 87.4611C157.587 95.7464 156.809 98.4927 156.397 103.892L156.123 108.081L154.064 108.267C151.227 108.5 149.077 109.431 144.227 112.596C139.285 115.901 135.122 117.856 131.507 118.694L128.808 119.299L130.592 120.37C135.396 123.349 143.22 124.186 149.992 122.418C161.887 119.299 176.208 109.385 194.555 91.5573L200 86.2509L197.621 81.3635C196.34 78.7104 194.189 75.0797 192.908 73.311C187.281 65.817 178.038 60.6503 167.744 59.2539L165.456 58.9281L165.822 62.3725Z" fill="#FF0000"/>
<path d="M22.8889 70.425C12.1826 75.9175 5.31961 83.8304 2.43715 94.0707C1.75085 96.4911 -0.170788 107.104 0.0122254 107.336C0.0579788 107.383 1.56784 106.452 3.30646 105.288C8.43084 101.937 16.0259 98.3064 19.8692 97.422C24.8105 96.3049 28.4708 96.7238 32.5886 98.865L35.7913 100.541L39.3601 96.7704L42.8831 92.9535L41.0072 90.8124C36.9809 86.1577 31.9938 76.988 29.8891 70.3319C29.4316 69.0286 28.7911 67.9115 28.4708 67.9115C28.1505 67.9115 25.6341 69.0751 22.8889 70.425Z" fill="#FF0000"/>
<path d="M141.71 78.757C141.71 79.8741 137.181 88.9042 134.527 93.0003C131.141 98.3532 123.866 105.614 119.062 108.454C112.703 112.224 105.382 114.598 98.2903 115.25C94.3556 115.575 94.7673 115.855 100.624 117.018C105.565 117.996 114.304 117.996 119.291 117.018C124.782 115.948 130.729 113.574 139.194 109.105C146.972 105.009 149.809 103.846 152.417 103.659C153.332 103.613 154.064 103.473 154.064 103.427C154.064 103.334 153.515 102.403 152.874 101.332C152.188 100.262 150.586 95.9793 149.26 91.8832C146.514 83.3186 145.828 81.7825 143.861 79.6414C142.351 78.0588 141.71 77.7795 141.71 78.757Z" fill="#FF0000"/>
<path d="M45.8571 100.122C44.0269 101.146 40.9615 104.497 39.8176 106.731C38.628 109.152 37.9417 113.76 38.6738 114.83C38.9483 115.249 39.6346 115.296 41.785 114.877C45.5368 114.132 52.4455 114.598 56.9294 115.854C61.0929 116.972 70.0606 121.347 79.4858 126.839C93.8523 135.218 104.513 138.29 113.984 136.847C116.592 136.475 117.415 136.102 118.559 134.939C119.886 133.635 119.977 133.309 119.977 130.144C119.977 127.863 119.703 126.141 119.154 124.838L118.285 122.976L114.35 122.65C91.4731 120.835 71.2502 114.132 51.9422 102.03C47.7787 99.4235 47.3212 99.2839 45.8571 100.122Z" fill="#FF0000"/>
<path d="M16.2546 102.868C10.9015 103.427 7.51576 104.544 4.67905 106.685C3.85549 107.337 4.0385 107.616 8.97986 112.876C16.1174 120.509 19.5489 123.442 24.353 125.909C30.1179 128.795 33.7782 129.493 41.7392 129.214C45.2622 129.074 49.4716 128.608 51.1187 128.19C56.6091 126.84 63.9296 124.559 63.9296 124.233C63.9296 123.814 59.7203 121.906 56.1515 120.696C54.2299 119.997 52.3083 119.811 47.9159 119.811C42.7916 119.858 41.9223 119.951 39.4058 121.068L36.5691 122.278L35.6083 120.928C33.5036 118.042 33.1376 114.598 34.4187 109.804C34.7847 108.407 35.105 106.359 35.105 105.289V103.334L32.7258 103.101C28.3793 102.589 19.8692 102.496 16.2546 102.868Z" fill="#FF0000"/>
<path d="M167.332 117.577C162.803 121.021 156.443 124.326 152.234 125.49C150.22 126.048 147.567 126.281 143.998 126.281C137.684 126.328 133.429 125.257 127.664 122.185L123.866 120.183V123.721C123.866 132.984 119.794 139.221 112.382 141.223C109.317 142.06 102.774 142.06 98.2446 141.269C96.3687 140.897 94.7216 140.711 94.6759 140.757C94.5844 140.85 95.3164 142.153 96.323 143.643C106.846 159.376 128.122 163.798 158.227 156.536L163.077 155.373L163.352 152.021C163.718 147.553 164.816 144.527 168.613 137.545C173.097 129.4 173.921 127.026 173.646 122.511C173.509 119.904 173.143 118.275 172.319 116.739L171.221 114.598L167.332 117.577Z" fill="#FF0000"/>
<path d="M63.7009 129.353C59.4916 131.448 52.6286 133.775 48.465 134.473C42.7916 135.497 35.105 134.985 30.8957 133.31C29.7977 132.844 29.8434 133.542 31.216 138.383C35.1965 152.301 43.7067 160.26 57.0666 162.401C60.6811 162.96 71.2502 163.006 71.2502 162.448C71.2502 162.262 70.5181 160.493 69.6945 158.584C66.8578 152.44 65.9885 148.158 65.9885 140.757C66.0343 134.66 66.4461 131.681 67.8187 128.283C68.2762 127.212 67.9102 127.305 63.7009 129.353Z" fill="#FF0000"/>
<path d="M72.3025 139.221C72.5313 148.344 73.3091 151.835 76.1915 157.514C82.78 170.268 99.297 175.76 119.017 171.664C124.965 170.454 127.984 169.383 134.253 166.358C142.397 162.401 142.488 162.587 132.697 162.774C119.84 163.099 112.886 161.796 105.016 157.654C98.5192 154.256 92.5712 147.46 89.5515 140.152L88.2704 137.033L80.5381 134.147C76.3288 132.565 72.6685 131.262 72.4398 131.262C72.2568 131.215 72.1652 134.846 72.3025 139.221Z" fill="#FF0000"/>
<path d="M74.105 74.46C73.793 74.052 73.529 73.608 73.313 73.128C73.097 72.624 72.869 72.024 72.629 71.328C72.581 71.208 72.437 70.848 72.197 70.248C71.981 69.648 71.729 69.132 71.441 68.7C69.929 68.916 68.693 69.024 67.733 69.024C67.205 69.024 66.617 69.012 65.969 68.988C65.345 68.94 64.877 68.916 64.565 68.916C63.365 68.82 62.405 68.772 61.685 68.772C61.397 69.156 61.145 69.564 60.929 69.996C60.737 70.428 60.485 71.076 60.173 71.94C59.741 73.188 59.369 74.076 59.057 74.604C58.841 74.964 58.421 75.144 57.797 75.144C57.269 75.144 56.777 75.036 56.321 74.82C55.889 74.58 55.673 74.256 55.673 73.848C55.865 72.936 56.165 71.976 56.573 70.968C57.005 69.936 57.617 68.568 58.409 66.864L59.849 63.336C60.641 61.32 61.361 59.592 62.009 58.152C62.681 56.712 63.557 55.008 64.637 53.04C64.781 52.752 65.021 52.512 65.357 52.32C65.693 52.104 66.065 51.996 66.473 51.996C66.929 51.996 67.253 52.032 67.445 52.104C67.661 52.152 67.829 52.248 67.949 52.392C68.069 52.512 68.249 52.776 68.489 53.184C69.305 54.456 70.001 55.764 70.577 57.108C71.177 58.452 71.933 60.312 72.845 62.688L73.601 64.596C74.273 66.324 74.849 67.776 75.329 68.952C75.833 70.104 76.385 71.16 76.985 72.12C77.369 72.744 77.561 73.176 77.561 73.416C77.561 73.992 77.381 74.436 77.021 74.748C76.685 75.036 76.241 75.18 75.689 75.18C74.993 75.18 74.465 74.94 74.105 74.46ZM70.397 65.748C70.013 64.932 69.461 63.516 68.741 61.5C67.997 59.34 67.253 57.624 66.509 56.352C66.053 57.504 65.381 58.992 64.493 60.816C63.893 61.944 63.209 63.576 62.441 65.712C63.977 65.904 65.633 66 67.409 66C68.681 66 69.677 65.916 70.397 65.748ZM96.1722 66.432C96.3162 65.904 96.4722 65.184 96.6402 64.272C96.8802 63.192 97.0722 62.376 97.2162 61.824C97.3602 61.272 97.5522 60.804 97.7922 60.42C98.0562 59.988 98.2842 59.7 98.4762 59.556C98.6922 59.412 98.9202 59.34 99.1602 59.34C100.408 59.34 101.032 59.82 101.032 60.78C101.032 61.26 100.84 62.16 100.456 63.48C99.1842 67.32 98.2722 70.296 97.7202 72.408C97.4802 73.296 97.1202 73.98 96.6402 74.46C96.1602 74.916 95.5122 75.144 94.6962 75.144C94.2882 75.144 93.8682 74.952 93.4362 74.568C93.0282 74.16 92.6922 73.668 92.4282 73.092L92.0322 72.12C91.3602 70.416 90.8562 69.108 90.5202 68.196C90.2082 67.26 90.0042 66.42 89.9082 65.676L89.5842 66.828C89.0082 68.892 88.4082 70.812 87.7842 72.588C87.4722 73.5 87.0882 74.16 86.6322 74.568C86.1762 74.952 85.5882 75.144 84.8682 75.144C84.4362 75.144 84.0522 75.048 83.7162 74.856C83.4042 74.664 83.1042 74.34 82.8162 73.884C82.4322 73.26 82.0602 72.42 81.7002 71.364C81.3642 70.308 80.8722 68.664 80.2242 66.432C79.9122 65.472 79.6242 64.464 79.3602 63.408C79.0962 62.328 78.9642 61.572 78.9642 61.14C78.9642 60.636 79.0962 60.24 79.3602 59.952C79.6242 59.664 80.0082 59.52 80.5122 59.52C81.1602 59.52 81.6162 59.652 81.8802 59.916C82.1442 60.156 82.3842 60.528 82.6002 61.032C82.7202 61.896 82.9842 63.12 83.3922 64.704L84.1842 68.088C84.2322 68.352 84.3762 68.904 84.6162 69.744L84.9042 70.788C85.4322 69.66 85.8762 68.58 86.2362 67.548C86.5962 66.516 86.9922 65.244 87.4242 63.732C87.4482 63.636 87.6882 62.808 88.1442 61.248C88.4562 60.744 88.7322 60.372 88.9722 60.132C89.2122 59.868 89.4522 59.736 89.6922 59.736C90.1722 59.736 90.5802 59.892 90.9162 60.204C91.2762 60.492 91.5402 60.852 91.7082 61.284C91.9962 62.22 92.2482 63.072 92.4642 63.84C92.5602 64.152 92.7762 64.908 93.1122 66.108C93.4722 67.284 93.7962 68.28 94.0842 69.096C94.3722 69.912 94.6122 70.488 94.8042 70.824L96.1722 66.432ZM103.756 67.368C103.756 66.456 103.924 65.544 104.26 64.632C104.596 63.696 105.04 62.844 105.592 62.076C106.144 61.308 107.02 60.684 108.22 60.204C109.42 59.7 110.488 59.448 111.424 59.448C112.384 59.448 113.356 59.58 114.34 59.844C115.348 60.108 116.044 60.516 116.428 61.068C117.316 62.316 117.76 63.54 117.76 64.74C117.76 65.388 117.616 65.94 117.328 66.396C117.064 66.852 116.68 67.344 116.176 67.872C115.768 68.304 115.12 68.592 114.232 68.736C113.368 68.88 112.504 68.952 111.64 68.952C111.088 68.952 110.416 68.904 109.624 68.808C108.832 68.688 108.064 68.544 107.32 68.376C107.368 68.856 107.488 69.324 107.68 69.78C107.872 70.236 108.1 70.584 108.364 70.824C108.844 71.28 109.336 71.568 109.84 71.688C110.368 71.808 111.04 71.868 111.856 71.868C112.72 71.868 113.524 71.724 114.268 71.436C114.868 71.22 115.36 71.112 115.744 71.112C116.2 71.112 116.548 71.256 116.788 71.544C117.028 71.808 117.148 72.156 117.148 72.588C117.148 73.188 116.8 73.68 116.104 74.064C115.408 74.448 114.604 74.736 113.692 74.928C112.804 75.096 112.084 75.18 111.532 75.18C110.404 75.18 109.312 74.976 108.256 74.568C107.2 74.16 106.324 73.584 105.628 72.84C105.052 72.168 104.596 71.364 104.26 70.428C103.924 69.468 103.756 68.448 103.756 67.368ZM111.604 62.508C111.076 62.508 110.548 62.616 110.02 62.832C109.492 63.024 109.06 63.3 108.724 63.66C108.292 64.116 107.992 64.488 107.824 64.776C107.68 65.04 107.584 65.412 107.536 65.892C108.136 66.084 109.384 66.18 111.28 66.18C112.312 66.18 113.104 66.024 113.656 65.712C114.232 65.4 114.52 64.992 114.52 64.488C114.52 63.984 114.208 63.528 113.584 63.12C112.96 62.712 112.3 62.508 111.604 62.508ZM121.344 62.364C120.72 61.932 120.408 61.476 120.408 60.996C120.408 60.66 120.552 60.348 120.84 60.06C121.128 59.772 121.56 59.628 122.136 59.628C122.808 59.628 123.408 59.808 123.936 60.168C124.488 60.504 124.872 60.996 125.088 61.644C125.64 60.996 126.264 60.48 126.96 60.096C127.68 59.712 128.412 59.52 129.156 59.52C130.044 59.52 130.848 59.76 131.568 60.24C132.288 60.72 132.648 61.368 132.648 62.184C132.648 62.64 132.444 63.108 132.036 63.588C131.652 64.068 131.256 64.308 130.848 64.308C130.632 64.308 130.44 64.26 130.272 64.164C130.128 64.044 129.948 63.876 129.732 63.66C129.492 63.42 129.288 63.252 129.12 63.156C128.952 63.036 128.76 62.976 128.544 62.976C128.16 62.976 127.8 63.036 127.464 63.156C127.128 63.276 126.9 63.42 126.78 63.588C126.396 64.188 126.108 64.728 125.916 65.208C125.748 65.688 125.664 66.204 125.664 66.756C125.664 67.164 125.652 67.488 125.628 67.728L125.592 69.78C125.592 70.092 125.604 70.44 125.628 70.824C125.652 71.208 125.676 71.496 125.7 71.688C125.772 72.336 125.808 72.96 125.808 73.56C125.808 73.968 125.652 74.328 125.34 74.64C125.028 74.952 124.644 75.108 124.188 75.108C123.468 75.108 122.94 74.976 122.604 74.712C122.268 74.424 122.1 73.908 122.1 73.164L122.064 70.86C122.04 70.404 122.028 69.756 122.028 68.916L122.064 66.54C122.112 65.388 122.136 64.452 122.136 63.732C122.136 63.468 122.076 63.228 121.956 63.012C121.86 62.796 121.656 62.58 121.344 62.364ZM144.995 66.756C145.955 67.308 146.627 67.86 147.011 68.412C147.395 68.94 147.587 69.636 147.587 70.5C147.587 71.364 147.335 72.132 146.831 72.804C146.327 73.452 145.679 73.956 144.887 74.316C144.311 74.58 143.591 74.784 142.727 74.928C141.887 75.072 141.227 75.144 140.747 75.144C139.907 75.144 138.995 74.988 138.011 74.676C137.027 74.364 136.187 73.92 135.491 73.344C134.819 72.768 134.483 72.096 134.483 71.328C134.483 70.848 134.639 70.476 134.951 70.212C135.263 69.924 135.671 69.78 136.175 69.78C136.583 69.78 137.015 70.068 137.471 70.644C137.927 71.148 138.455 71.532 139.055 71.796C139.679 72.06 140.291 72.192 140.891 72.192C143.171 72.192 144.311 71.676 144.311 70.644C144.311 70.428 144.239 70.224 144.095 70.032C143.951 69.816 143.819 69.672 143.699 69.6C143.483 69.432 143.183 69.288 142.799 69.168C142.415 69.048 142.031 68.952 141.647 68.88C141.263 68.784 140.975 68.712 140.783 68.664C140.591 68.616 140.183 68.532 139.559 68.412C138.959 68.292 138.383 68.088 137.831 67.8C136.919 67.368 136.175 66.84 135.599 66.216C135.047 65.592 134.771 64.788 134.771 63.804C134.771 63.252 134.903 62.7 135.167 62.148C135.455 61.572 135.839 61.14 136.319 60.852C137.039 60.396 137.831 60.048 138.695 59.808C139.559 59.568 140.363 59.448 141.107 59.448C141.707 59.448 142.379 59.508 143.123 59.628C143.891 59.748 144.443 59.916 144.779 60.132C145.403 60.468 145.859 60.816 146.147 61.176C146.435 61.536 146.579 61.992 146.579 62.544C146.579 62.808 146.519 63.072 146.399 63.336C146.279 63.576 146.135 63.744 145.967 63.84C145.583 63.984 145.247 64.056 144.959 64.056C144.743 64.056 144.563 64.02 144.419 63.948C144.275 63.852 144.143 63.756 144.023 63.66C143.927 63.564 143.867 63.504 143.843 63.48C143.531 63.144 143.183 62.88 142.799 62.688C142.415 62.496 141.851 62.4 141.107 62.4C140.627 62.4 140.159 62.472 139.703 62.616C139.271 62.736 138.935 62.892 138.695 63.084C138.503 63.228 138.371 63.36 138.299 63.48C138.227 63.576 138.191 63.708 138.191 63.876C138.191 64.548 138.863 65.04 140.207 65.352C141.575 65.664 142.295 65.832 142.367 65.856C142.511 65.904 142.907 66.024 143.555 66.216C144.227 66.408 144.707 66.588 144.995 66.756ZM49.1711 116.704C49.0991 117.064 48.8831 117.376 48.5231 117.64C48.1871 117.88 47.7071 118 47.0831 118C46.5551 118 46.1351 117.856 45.8231 117.568C45.5351 117.28 45.3791 116.98 45.3551 116.668C45.4991 115.66 45.5711 114.148 45.5711 112.132C45.5711 110.932 45.4991 109.084 45.3551 106.588C45.1871 104.236 45.1031 102.148 45.1031 100.324C45.1031 99.34 45.1511 98.332 45.2471 97.3C45.2471 96.964 45.4391 96.604 45.8231 96.22C46.2311 95.836 46.7831 95.596 47.4791 95.5C49.7591 95.26 52.5551 95.14 55.8671 95.14H57.0191C57.8831 95.14 58.7231 95.296 59.5391 95.608C60.3791 95.92 60.7991 96.46 60.7991 97.228C60.7991 97.732 60.6791 98.128 60.4391 98.416C60.1991 98.704 59.7551 98.848 59.1071 98.848C58.7951 98.848 58.4351 98.824 58.0271 98.776C57.6191 98.728 57.3311 98.692 57.1631 98.668C56.2511 98.524 55.5431 98.452 55.0391 98.452C52.2551 98.452 50.1551 98.644 48.7391 99.028C48.7391 99.82 48.7631 101.104 48.8111 102.88L48.8471 105.184C50.0951 105.184 51.2111 105.136 52.1951 105.04C53.1791 104.92 53.7431 104.848 53.8871 104.824C55.1351 104.68 55.9631 104.608 56.3711 104.608C56.9471 104.608 57.4271 104.74 57.8111 105.004C58.2191 105.244 58.4231 105.628 58.4231 106.156C58.4231 107.356 57.5831 107.956 55.9031 107.956C55.4951 107.956 55.1351 107.968 54.8231 107.992C54.5111 108.016 54.2471 108.04 54.0311 108.064C53.1671 108.16 52.4831 108.208 51.9791 108.208C50.8751 108.208 49.9391 108.244 49.1711 108.316C49.1711 109.204 49.2071 110.14 49.2791 111.124C49.2791 111.436 49.2911 111.916 49.3151 112.564C49.3631 113.212 49.3871 113.8 49.3871 114.328C49.3871 114.784 49.3751 115.204 49.3511 115.588C49.3271 115.972 49.2671 116.344 49.1711 116.704ZM66.9081 112.42C66.9081 113.332 67.0401 114.04 67.3041 114.544C67.5921 115.024 67.9521 115.264 68.3841 115.264C68.6241 115.264 68.8521 115.252 69.0681 115.228C69.2841 115.18 69.5001 115.156 69.7161 115.156C69.9561 115.156 70.1601 115.276 70.3281 115.516C70.5201 115.756 70.6161 116.02 70.6161 116.308C70.6161 116.884 70.3401 117.34 69.7881 117.676C69.2601 117.988 68.5401 118.144 67.6281 118.144C66.9801 118.144 66.3201 117.952 65.6481 117.568C65.0001 117.16 64.4601 116.536 64.0281 115.696C63.5961 114.832 63.3801 113.764 63.3801 112.492C63.3801 109.756 63.4281 107.44 63.5241 105.544C63.6441 103.288 63.7041 100.444 63.7041 97.012C63.7041 95.932 63.7641 95.176 63.8841 94.744C64.0281 94.408 64.2561 94.156 64.5681 93.988C64.9041 93.796 65.2521 93.7 65.6121 93.7C65.9721 93.7 66.2841 93.76 66.5481 93.88C66.8361 94 67.0281 94.192 67.1241 94.456C67.2201 94.744 67.2801 95.032 67.3041 95.32C67.3521 95.584 67.3761 95.968 67.3761 96.472C67.3761 97.456 67.3401 98.404 67.2681 99.316C67.2201 100.42 67.1961 101.224 67.1961 101.728C67.0041 105.952 66.9081 109.516 66.9081 112.42ZM87.2554 106.444C87.4474 106.78 87.6034 107.272 87.7234 107.92C87.8434 108.544 87.9034 109.108 87.9034 109.612C87.9034 110.26 87.8314 110.98 87.6874 111.772C87.5434 112.564 87.4114 113.176 87.2914 113.608C85.6354 116.632 83.1874 118.144 79.9474 118.144C78.7474 118.144 77.5234 117.748 76.2754 116.956C75.0274 116.164 74.1634 115.252 73.6834 114.22C73.0354 112.18 72.7114 110.872 72.7114 110.296C72.7114 109.336 72.9154 108.316 73.3234 107.236C73.7554 106.156 74.2954 105.22 74.9434 104.428C75.3754 103.876 76.1194 103.408 77.1754 103.024C78.2314 102.616 79.1914 102.412 80.0554 102.412C81.7354 102.412 83.1514 102.736 84.3034 103.384C85.4794 104.008 86.4634 105.028 87.2554 106.444ZM84.1234 112.24C84.2434 112 84.3034 111.196 84.3034 109.828C84.3034 109.132 84.1714 108.448 83.9074 107.776C83.6674 107.104 83.3074 106.528 82.8274 106.048C82.7794 106 82.6474 105.928 82.4314 105.832C82.2154 105.712 81.9154 105.604 81.5314 105.508C81.1714 105.388 80.7514 105.328 80.2714 105.328C78.9274 105.328 77.9434 105.868 77.3194 106.948C76.6954 108.028 76.3834 109.252 76.3834 110.62C76.3834 110.836 76.4554 111.28 76.5994 111.952C76.7434 112.624 76.8514 113.056 76.9234 113.248C77.1154 113.584 77.4994 113.98 78.0754 114.436C78.6754 114.868 79.3234 115.084 80.0194 115.084C81.0994 115.084 81.9514 114.832 82.5754 114.328C83.2234 113.8 83.7394 113.104 84.1234 112.24ZM107.985 109.432C108.129 108.904 108.285 108.184 108.453 107.272C108.693 106.192 108.885 105.376 109.029 104.824C109.173 104.272 109.365 103.804 109.605 103.42C109.869 102.988 110.097 102.7 110.289 102.556C110.505 102.412 110.733 102.34 110.973 102.34C112.221 102.34 112.845 102.82 112.845 103.78C112.845 104.26 112.653 105.16 112.269 106.48C110.997 110.32 110.085 113.296 109.533 115.408C109.293 116.296 108.933 116.98 108.453 117.46C107.973 117.916 107.325 118.144 106.509 118.144C106.101 118.144 105.681 117.952 105.249 117.568C104.841 117.16 104.505 116.668 104.241 116.092L103.845 115.12C103.173 113.416 102.669 112.108 102.333 111.196C102.021 110.26 101.817 109.42 101.721 108.676L101.397 109.828C100.821 111.892 100.221 113.812 99.5967 115.588C99.2847 116.5 98.9007 117.16 98.4447 117.568C97.9887 117.952 97.4007 118.144 96.6807 118.144C96.2487 118.144 95.8647 118.048 95.5287 117.856C95.2167 117.664 94.9167 117.34 94.6287 116.884C94.2447 116.26 93.8727 115.42 93.5127 114.364C93.1767 113.308 92.6847 111.664 92.0367 109.432C91.7247 108.472 91.4367 107.464 91.1727 106.408C90.9087 105.328 90.7767 104.572 90.7767 104.14C90.7767 103.636 90.9087 103.24 91.1727 102.952C91.4367 102.664 91.8207 102.52 92.3247 102.52C92.9727 102.52 93.4287 102.652 93.6927 102.916C93.9567 103.156 94.1967 103.528 94.4127 104.032C94.5327 104.896 94.7967 106.12 95.2047 107.704L95.9967 111.088C96.0447 111.352 96.1887 111.904 96.4287 112.744L96.7167 113.788C97.2447 112.66 97.6887 111.58 98.0487 110.548C98.4087 109.516 98.8047 108.244 99.2367 106.732C99.2607 106.636 99.5007 105.808 99.9567 104.248C100.269 103.744 100.545 103.372 100.785 103.132C101.025 102.868 101.265 102.736 101.505 102.736C101.985 102.736 102.393 102.892 102.729 103.204C103.089 103.492 103.353 103.852 103.521 104.284C103.809 105.22 104.061 106.072 104.277 106.84C104.373 107.152 104.589 107.908 104.925 109.108C105.285 110.284 105.609 111.28 105.897 112.096C106.185 112.912 106.425 113.488 106.617 113.824L107.985 109.432ZM115.569 109.864C115.569 109 115.725 108.196 116.037 107.452C116.349 106.684 116.805 105.892 117.405 105.076C118.005 104.26 118.833 103.624 119.889 103.168C120.945 102.688 122.097 102.448 123.345 102.448C124.305 102.448 125.229 102.652 126.117 103.06C127.029 103.444 127.845 103.924 128.565 104.5C128.661 104.668 128.829 104.98 129.069 105.436C129.309 105.868 129.477 106.264 129.573 106.624C129.693 106.984 129.753 107.356 129.753 107.74C129.753 109.348 129.165 110.428 127.989 110.98C126.813 111.508 125.325 111.772 123.525 111.772C121.725 111.772 120.261 111.652 119.133 111.412C119.181 111.868 119.301 112.324 119.493 112.78C119.685 113.236 119.913 113.584 120.177 113.824C120.657 114.28 121.125 114.58 121.581 114.724C122.061 114.844 122.697 114.904 123.489 114.904C124.689 114.904 125.625 114.676 126.297 114.22C126.921 113.812 127.401 113.608 127.737 113.608C128.193 113.608 128.541 113.752 128.781 114.04C129.021 114.304 129.141 114.652 129.141 115.084C129.141 115.996 128.553 116.74 127.377 117.316C126.225 117.892 124.917 118.18 123.453 118.18C122.301 118.18 121.161 117.976 120.033 117.568C118.905 117.16 118.005 116.584 117.333 115.84C116.877 115.072 116.469 114.136 116.109 113.032C115.749 111.928 115.569 110.872 115.569 109.864ZM123.489 105.4C122.961 105.4 122.409 105.496 121.833 105.688C121.281 105.856 120.849 106.12 120.537 106.48C120.153 106.888 119.865 107.26 119.673 107.596C119.505 107.932 119.397 108.352 119.349 108.856C119.613 108.856 119.865 108.868 120.105 108.892C120.345 108.916 120.573 108.94 120.789 108.964C121.845 109.06 122.637 109.108 123.165 109.108C124.221 109.108 125.025 108.952 125.577 108.64C126.153 108.328 126.441 107.908 126.441 107.38C126.441 106.876 126.117 106.42 125.469 106.012C124.845 105.604 124.185 105.4 123.489 105.4ZM138.228 116.56C138.18 116.968 138.012 117.328 137.724 117.64C137.436 117.952 137.064 118.108 136.608 118.108C135.888 118.108 135.36 117.976 135.024 117.712C134.688 117.424 134.52 116.908 134.52 116.164C134.52 115.156 134.58 114.052 134.7 112.852C134.796 111.46 134.844 110.392 134.844 109.648C134.844 109.264 134.82 108.784 134.772 108.208C134.724 107.68 134.7 107.284 134.7 107.02C134.628 106.612 134.46 106.288 134.196 106.048C133.956 105.808 133.572 105.604 133.044 105.436C132.828 105.34 132.648 105.184 132.504 104.968C132.36 104.728 132.288 104.512 132.288 104.32C132.288 103.768 132.504 103.348 132.936 103.06C133.368 102.772 133.896 102.628 134.52 102.628C135.216 102.628 135.816 102.868 136.32 103.348C136.824 103.828 137.208 104.428 137.472 105.148C138.024 104.356 138.696 103.72 139.488 103.24C140.304 102.76 141.096 102.52 141.864 102.52C142.848 102.52 143.676 102.688 144.348 103.024C145.044 103.336 145.392 103.888 145.392 104.68C145.392 105.136 145.188 105.616 144.78 106.12C144.396 106.6 144 106.84 143.592 106.84C143.28 106.84 142.908 106.696 142.476 106.408C142.308 106.288 142.116 106.192 141.9 106.12C141.708 106.024 141.504 105.976 141.288 105.976C140.904 105.976 140.544 106.036 140.208 106.156C139.872 106.276 139.644 106.42 139.524 106.588C139.14 107.188 138.852 107.728 138.66 108.208C138.492 108.688 138.408 109.204 138.408 109.756C138.408 110.164 138.396 110.488 138.372 110.728L138.336 112.78L138.372 114.148C138.372 115.156 138.324 115.96 138.228 116.56ZM157.612 109.9C157.804 110.02 158.176 110.248 158.728 110.584C159.304 110.896 159.688 111.268 159.88 111.7C160.072 112.132 160.168 112.732 160.168 113.5C160.168 114.364 159.916 115.132 159.412 115.804C158.908 116.452 158.26 116.956 157.468 117.316C156.892 117.58 156.184 117.784 155.344 117.928C154.528 118.072 153.88 118.144 153.4 118.144C152.92 118.144 152.296 118.072 151.528 117.928C150.784 117.784 150.268 117.652 149.98 117.532C149.236 117.1 148.588 116.572 148.036 115.948C147.508 115.324 147.244 114.688 147.244 114.04C147.244 113.56 147.4 113.188 147.712 112.924C148.024 112.636 148.432 112.492 148.936 112.492C149.176 112.492 149.428 112.588 149.692 112.78C149.956 112.948 150.136 113.128 150.232 113.32C150.496 113.944 150.94 114.412 151.564 114.724C152.188 115.036 152.824 115.192 153.472 115.192C154.312 115.192 155.092 115.06 155.812 114.796C156.532 114.508 156.892 114.124 156.892 113.644C156.892 113.428 156.832 113.26 156.712 113.14C156.616 112.996 156.472 112.852 156.28 112.708C155.944 112.468 155.44 112.276 154.768 112.132C154.096 111.964 153.664 111.856 153.472 111.808C152.488 111.592 151.528 111.268 150.592 110.836C149.656 110.38 148.912 109.84 148.36 109.216C147.808 108.592 147.532 107.788 147.532 106.804C147.532 106.156 147.772 105.484 148.252 104.788C148.732 104.068 149.272 103.564 149.872 103.276C150.304 103.108 151.024 102.928 152.032 102.736C153.064 102.544 153.76 102.448 154.12 102.448C154.672 102.448 155.272 102.508 155.92 102.628C156.568 102.724 157.06 102.892 157.396 103.132C158.044 103.516 158.572 103.924 158.98 104.356C159.388 104.764 159.592 105.232 159.592 105.76C159.592 106.024 159.532 106.312 159.412 106.624C159.292 106.912 159.148 107.092 158.98 107.164C158.62 107.332 158.2 107.416 157.72 107.416C157.504 107.416 157.324 107.356 157.18 107.236C157.06 107.116 156.892 106.924 156.676 106.66C156.412 106.252 156.16 106.012 155.92 105.94C155.632 105.868 155.212 105.784 154.66 105.688C154.108 105.568 153.736 105.508 153.544 105.508C152.992 105.508 152.416 105.664 151.816 105.976C151.24 106.288 150.952 106.648 150.952 107.056C150.952 107.272 151.036 107.44 151.204 107.56C151.396 107.68 151.588 107.788 151.78 107.884C151.996 107.98 152.14 108.04 152.212 108.064C152.716 108.304 153.268 108.508 153.868 108.676C154.492 108.844 154.876 108.952 155.02 109C156.316 109.312 157.18 109.612 157.612 109.9Z" fill="white"/>
</g>
<defs>
<clipPath id="clip0_6_701">
<rect width="200" height="173" fill="white"/>
</clipPath>
</defs>
</svg>
